<?xml version="1.0" encoding="UTF-8" standalone="no"?>
<!-- Created with Inkscape (http://www.inkscape.org/) -->

<svg
   width="55"
   height="52"
   viewBox="0 0 14.552084 13.758334"
   version="1.1"
   id="svg9867"
   inkscape:export-filename="../../../../j-alarcon/img/icons/ubuntu.png"
   inkscape:export-xdpi="96"
   inkscape:export-ydpi="96"
   inkscape:version="1.2.2 (1:1.2.2+202212051550+b0a8486541)"
   sodipodi:docname="github.svg"
   xmlns:inkscape="http://www.inkscape.org/namespaces/inkscape"
   xmlns:sodipodi="http://sodipodi.sourceforge.net/DTD/sodipodi-0.dtd"
   xmlns="http://www.w3.org/2000/svg"
   xmlns:svg="http://www.w3.org/2000/svg">
  <sodipodi:namedview
     id="namedview9869"
     pagecolor="#ffffff"
     bordercolor="#000000"
     borderopacity="0.25"
     inkscape:showpageshadow="2"
     inkscape:pageopacity="0.0"
     inkscape:pagecheckerboard="0"
     inkscape:deskcolor="#d1d1d1"
     inkscape:document-units="mm"
     showgrid="false"
     inkscape:zoom="4.0718557"
     inkscape:cx="-25.54118"
     inkscape:cy="55.994126"
     inkscape:window-width="1920"
     inkscape:window-height="949"
     inkscape:window-x="1920"
     inkscape:window-y="27"
     inkscape:window-maximized="1"
     inkscape:current-layer="layer1"
     showguides="true">
    <sodipodi:guide
       position="0.1378982,6.5217155"
       orientation="1,0"
       id="guide31099"
       inkscape:locked="false" />
    <sodipodi:guide
       position="9.3961174,13.638705"
       orientation="0,-1"
       id="guide31101"
       inkscape:locked="false" />
    <sodipodi:guide
       position="14.414185,7.5325447"
       orientation="1,0"
       id="guide31103"
       inkscape:locked="false" />
    <sodipodi:guide
       position="10.475867,0.11963543"
       orientation="0,-1"
       id="guide31105"
       inkscape:locked="false" />
  </sodipodi:namedview>
  <defs
     id="defs9864" />
  <g
     inkscape:label="Capa 1"
     inkscape:groupmode="layer"
     id="layer1">
    <g
       id="g266810"
       transform="matrix(1.9021896,0,0,1.9021896,-212.71536,-35.656937)"
       inkscape:export-filename="../../assets/icons/g266810.svg"
       inkscape:export-xdpi="96"
       inkscape:export-ydpi="96">
      <rect
         style="fill:#ffffff;fill-opacity:1;stroke:#292929;stroke-width:0.342925;stroke-opacity:1"
         id="rect120393-1-94"
         width="7.1622615"
         height="6.764184"
         x="112.07053"
         y="18.979559"
         ry="0.93124193" />
      <path
         d="m 118.74303,22.679546 c 0,1.438951 -0.90886,2.65628 -2.16396,3.064197 V 24.92791 c 0,-0.274624 -0.11131,-0.520335 -0.28751,-0.696992 0.80994,-0.152569 1.21492,-0.64239 1.21492,-1.551372 0,-0.393463 -0.0773,-0.705023 -0.22875,-0.947524 0.0681,-0.274622 0.1082,-0.664871 -0.0803,-0.979643 -0.36477,0 -0.61983,0.223229 -0.76977,0.406312 -0.22411,-0.0562 -0.48225,-0.08513 -0.77593,-0.08513 -0.27822,0 -0.53481,0.03213 -0.76356,0.09797 -0.1484,-0.184684 -0.40808,-0.419157 -0.78214,-0.419157 -0.21949,0.366162 -0.12983,0.761231 -0.0465,0.982856 -0.16691,0.242501 -0.26276,0.554059 -0.26276,0.944312 0,0.90898 0.40498,1.398801 1.21494,1.551371 -0.1036,0.104384 -0.18395,0.231259 -0.23341,0.375796 h -0.36323 c -0.22259,0 -0.30915,-0.102775 -0.42816,-0.269806 -0.11903,-0.167019 -0.24732,-0.279437 -0.40033,-0.326011 -0.0821,-0.0097 -0.13758,0.05944 -0.0649,0.12045 0.24269,0.181475 0.25968,0.47858 0.35707,0.6729 0.0882,0.175053 0.2705,0.284258 0.47607,0.284258 h 0.36943 v 0.655238 c -1.25512,-0.407917 -2.16399,-1.625245 -2.16399,-3.064196 0,-1.7746 1.3834,-3.211948 3.09142,-3.211948 1.70798,0 3.09139,1.437348 3.09139,3.211948 z"
         id="path263955"
         style="fill:#292929;fill-opacity:1;stroke-width:0.157555" />
    </g>
  </g>
</svg>
