<!-- https://yarduon.com -->
<svg width="55" height="52" version="1.1" viewBox="0 0 14.552 13.758" xmlns="http://www.w3.org/2000/svg">
<g transform="matrix(1.9022 0 0 1.9022 -212.72 -35.657)">
<rect x="112.07" y="18.98" width="7.1623" height="6.7642" ry=".93124" fill="#fff" stroke="#292929" stroke-width=".34292"/>
<path d="m118.74 22.68c0 1.439-0.90886 2.6563-2.164 3.0642v-0.81583c0-0.27462-0.11131-0.52034-0.28751-0.69699 0.80994-0.15257 1.2149-0.64239 1.2149-1.5514 0-0.39346-0.0773-0.70502-0.22875-0.94752 0.0681-0.27462 0.1082-0.66487-0.0803-0.97964-0.36477 0-0.61983 0.22323-0.76977 0.40631-0.22411-0.0562-0.48225-0.08513-0.77593-0.08513-0.27822 0-0.53481 0.03213-0.76356 0.09797-0.1484-0.18468-0.40808-0.41916-0.78214-0.41916-0.21949 0.36616-0.12983 0.76123-0.0465 0.98286-0.16691 0.2425-0.26276 0.55406-0.26276 0.94431 0 0.90898 0.40498 1.3988 1.2149 1.5514-0.1036 0.10438-0.18395 0.23126-0.23341 0.3758h-0.36323c-0.22259 0-0.30915-0.10278-0.42816-0.26981-0.11903-0.16702-0.24732-0.27944-0.40033-0.32601-0.0821-0.0097-0.13758 0.05944-0.0649 0.12045 0.24269 0.18148 0.25968 0.47858 0.35707 0.6729 0.0882 0.17505 0.2705 0.28426 0.47607 0.28426h0.36943v0.65524c-1.2551-0.40792-2.164-1.6252-2.164-3.0642 0-1.7746 1.3834-3.2119 3.0914-3.2119 1.708 0 3.0914 1.4373 3.0914 3.2119z" fill="#292929" stroke-width=".15756"/>
</g>
</svg>

