<?xml version="1.0" encoding="UTF-8" standalone="no"?>
<!-- Created with Inkscape (http://www.inkscape.org/) -->

<svg
   width="55"
   height="52"
   viewBox="0 0 14.552084 13.758334"
   version="1.1"
   id="svg9867"
   inkscape:export-filename="../../../../j-alarcon/img/icons/ubuntu.png"
   inkscape:export-xdpi="96"
   inkscape:export-ydpi="96"
   inkscape:version="1.2.2 (1:1.2.2+202212051550+b0a8486541)"
   sodipodi:docname="instagram.svg"
   xmlns:inkscape="http://www.inkscape.org/namespaces/inkscape"
   xmlns:sodipodi="http://sodipodi.sourceforge.net/DTD/sodipodi-0.dtd"
   xmlns="http://www.w3.org/2000/svg"
   xmlns:svg="http://www.w3.org/2000/svg">
  <sodipodi:namedview
     id="namedview9869"
     pagecolor="#ffffff"
     bordercolor="#000000"
     borderopacity="0.25"
     inkscape:showpageshadow="2"
     inkscape:pageopacity="0.0"
     inkscape:pagecheckerboard="0"
     inkscape:deskcolor="#d1d1d1"
     inkscape:document-units="mm"
     showgrid="false"
     inkscape:zoom="8"
     inkscape:cx="10.25"
     inkscape:cy="12.875"
     inkscape:window-width="1920"
     inkscape:window-height="949"
     inkscape:window-x="1920"
     inkscape:window-y="27"
     inkscape:window-maximized="1"
     inkscape:current-layer="layer1"
     showguides="true">
    <sodipodi:guide
       position="0.1378982,6.5217155"
       orientation="1,0"
       id="guide31099"
       inkscape:locked="false" />
    <sodipodi:guide
       position="9.3961174,13.638705"
       orientation="0,-1"
       id="guide31101"
       inkscape:locked="false" />
    <sodipodi:guide
       position="14.414185,7.5325447"
       orientation="1,0"
       id="guide31103"
       inkscape:locked="false" />
    <sodipodi:guide
       position="10.475867,0.11963543"
       orientation="0,-1"
       id="guide31105"
       inkscape:locked="false" />
  </sodipodi:namedview>
  <defs
     id="defs9864" />
  <g
     inkscape:label="Capa 1"
     inkscape:groupmode="layer"
     id="layer1">
    <g
       id="g252619"
       transform="matrix(1.9021897,0,0,1.9021897,-185.90381,-50.753439)">
      <rect
         style="fill:#b9289b;fill-opacity:1;stroke:#292929;stroke-width:0.342925;stroke-opacity:1"
         id="rect120393-1-9"
         width="7.1622605"
         height="6.764183"
         x="97.975433"
         y="26.915939"
         ry="0.93124181" />
      <g
         id="g147328"
         transform="matrix(1.051703,0,0,1.051703,-20.925975,-3.3849046)">
        <path
           d="m 116.46115,29.810241 c -0.60204,0 -0.67756,0.0026 -0.91395,0.01335 -0.23598,0.01075 -0.39715,0.0482 -0.53814,0.103016 -0.14579,0.05665 -0.26941,0.132435 -0.39266,0.255689 -0.1232,0.123254 -0.19904,0.246874 -0.25569,0.392661 -0.0548,0.140989 -0.0923,0.302111 -0.10301,0.538083 -0.0108,0.236442 -0.0134,0.311918 -0.0134,0.914001 0,0.602032 0.003,0.67756 0.0134,0.914001 0.0107,0.235921 0.0482,0.397095 0.10301,0.538084 0.0567,0.145787 0.13249,0.269407 0.25569,0.392661 0.12325,0.123202 0.24687,0.198991 0.39266,0.255689 0.14099,0.05477 0.30216,0.09227 0.53814,0.103016 0.23639,0.0108 0.31191,0.01335 0.91395,0.01335 0.60203,0 0.6775,-0.0026 0.91394,-0.01335 0.23603,-0.01075 0.39715,-0.04825 0.53814,-0.103016 0.14579,-0.0567 0.26941,-0.132487 0.39266,-0.255689 0.1232,-0.123254 0.19904,-0.246874 0.25569,-0.392661 0.0548,-0.140989 0.0923,-0.302163 0.10302,-0.538084 0.0108,-0.236441 0.0134,-0.311969 0.0134,-0.914001 0,-0.602031 -0.003,-0.677559 -0.0134,-0.914001 -0.0107,-0.235972 -0.0482,-0.397094 -0.10302,-0.538083 -0.0567,-0.145787 -0.13249,-0.269407 -0.25569,-0.392661 -0.12325,-0.123254 -0.24687,-0.199043 -0.39266,-0.255689 -0.14099,-0.05482 -0.30211,-0.09227 -0.53814,-0.103016 -0.23644,-0.0108 -0.31191,-0.01335 -0.91394,-0.01335 z m 0,0.399442 c 0.59191,0 0.66201,0.0022 0.89579,0.01288 0.2161,0.0099 0.33346,0.04601 0.4116,0.07636 0.10348,0.04016 0.17734,0.08826 0.2549,0.165817 0.0776,0.07756 0.12561,0.15142 0.16582,0.254906 0.0304,0.07808 0.0664,0.195444 0.0764,0.411595 0.0106,0.233782 0.0129,0.303885 0.0129,0.895797 0,0.591913 -0.002,0.662016 -0.0129,0.895798 -0.01,0.216099 -0.046,0.333511 -0.0764,0.411595 -0.0402,0.103485 -0.0883,0.177344 -0.16582,0.254906 -0.0776,0.07756 -0.15142,0.125602 -0.2549,0.165817 -0.0781,0.03036 -0.1955,0.0665 -0.4116,0.07636 -0.23378,0.01064 -0.30383,0.01288 -0.89579,0.01288 -0.59197,0 -0.66207,-0.0022 -0.8958,-0.01288 -0.2161,-0.0099 -0.33351,-0.04601 -0.4116,-0.07636 -0.10348,-0.04021 -0.17734,-0.08825 -0.2549,-0.165817 -0.0776,-0.07756 -0.1256,-0.151421 -0.16582,-0.254906 -0.0304,-0.07808 -0.0665,-0.195496 -0.0764,-0.411595 -0.0106,-0.233782 -0.0129,-0.303885 -0.0129,-0.895798 0,-0.591912 0.002,-0.662015 0.0129,-0.895797 0.01,-0.216151 0.046,-0.333511 0.0764,-0.411595 0.0402,-0.103486 0.0883,-0.177344 0.16582,-0.254906 0.0776,-0.07756 0.15142,-0.125654 0.2549,-0.165817 0.0781,-0.03036 0.1955,-0.06645 0.4116,-0.07636 0.23378,-0.01064 0.30388,-0.01288 0.8958,-0.01288"
           style="fill:#ffffff;fill-opacity:1;fill-rule:nonzero;stroke:none;stroke-width:0.00521601"
           id="path61995" />
        <path
           d="m 116.46115,32.765996 c -0.4081,0 -0.73896,-0.330851 -0.73896,-0.738952 0,-0.4081 0.33086,-0.738951 0.73896,-0.738951 0.4081,0 0.73895,0.330851 0.73895,0.738951 0,0.408101 -0.33085,0.738952 -0.73895,0.738952 z m 0,-1.877293 c -0.62869,0 -1.13835,0.509656 -1.13835,1.138341 0,0.628686 0.50966,1.138342 1.13835,1.138342 0.62873,0 1.13834,-0.509656 1.13834,-1.138342 0,-0.628685 -0.50961,-1.138341 -1.13834,-1.138341"
           style="fill:#ffffff;fill-opacity:1;fill-rule:nonzero;stroke:none;stroke-width:0.00521601"
           id="path61997" />
        <path
           d="m 117.91047,30.843689 c 0,0.146935 -0.11909,0.266016 -0.26597,0.266016 -0.14693,0 -0.26601,-0.119081 -0.26601,-0.266016 0,-0.146883 0.11908,-0.266017 0.26601,-0.266017 0.14688,0 0.26597,0.119134 0.26597,0.266017"
           style="fill:#ffffff;fill-opacity:1;fill-rule:nonzero;stroke:none;stroke-width:0.00521601"
           id="path61999" />
      </g>
    </g>
  </g>
</svg>
