<svg width="55" height="52" version="1.1" viewBox="0 0 14.552 13.758" xmlns="http://www.w3.org/2000/svg">
<g transform="matrix(1.9022 0 0 1.9022 -185.9 -50.753)">
<rect x="97.975" y="26.916" width="7.1623" height="6.7642" ry=".93124" fill="#b9289b" stroke="#292929" stroke-width=".34292"/>
<g transform="matrix(1.0517 0 0 1.0517 -20.926 -3.3849)" fill="#fff">
<path d="m116.46 29.81c-0.60204 0-0.67756 0.0026-0.91395 0.01335-0.23598 0.01075-0.39715 0.0482-0.53814 0.10302-0.14579 0.05665-0.26941 0.13244-0.39266 0.25569-0.1232 0.12325-0.19904 0.24687-0.25569 0.39266-0.0548 0.14099-0.0923 0.30211-0.10301 0.53808-0.0108 0.23644-0.0134 0.31192-0.0134 0.914 0 0.60203 3e-3 0.67756 0.0134 0.914 0.0107 0.23592 0.0482 0.3971 0.10301 0.53808 0.0567 0.14579 0.13249 0.26941 0.25569 0.39266 0.12325 0.1232 0.24687 0.19899 0.39266 0.25569 0.14099 0.05477 0.30216 0.09227 0.53814 0.10302 0.23639 0.0108 0.31191 0.01335 0.91395 0.01335 0.60203 0 0.6775-0.0026 0.91394-0.01335 0.23603-0.01075 0.39715-0.04825 0.53814-0.10302 0.14579-0.0567 0.26941-0.13249 0.39266-0.25569 0.1232-0.12325 0.19904-0.24687 0.25569-0.39266 0.0548-0.14099 0.0923-0.30216 0.10302-0.53808 0.0108-0.23644 0.0134-0.31197 0.0134-0.914 0-0.60203-3e-3 -0.67756-0.0134-0.914-0.0107-0.23597-0.0482-0.39709-0.10302-0.53808-0.0567-0.14579-0.13249-0.26941-0.25569-0.39266-0.12325-0.12325-0.24687-0.19904-0.39266-0.25569-0.14099-0.05482-0.30211-0.09227-0.53814-0.10302-0.23644-0.0108-0.31191-0.01335-0.91394-0.01335zm0 0.39944c0.59191 0 0.66201 0.0022 0.89579 0.01288 0.2161 0.0099 0.33346 0.04601 0.4116 0.07636 0.10348 0.04016 0.17734 0.08826 0.2549 0.16582 0.0776 0.07756 0.12561 0.15142 0.16582 0.25491 0.0304 0.07808 0.0664 0.19544 0.0764 0.4116 0.0106 0.23378 0.0129 0.30388 0.0129 0.8958 0 0.59191-2e-3 0.66202-0.0129 0.8958-0.01 0.2161-0.046 0.33351-0.0764 0.4116-0.0402 0.10348-0.0883 0.17734-0.16582 0.25491-0.0776 0.07756-0.15142 0.1256-0.2549 0.16582-0.0781 0.03036-0.1955 0.0665-0.4116 0.07636-0.23378 0.01064-0.30383 0.01288-0.89579 0.01288-0.59197 0-0.66207-0.0022-0.8958-0.01288-0.2161-0.0099-0.33351-0.04601-0.4116-0.07636-0.10348-0.04021-0.17734-0.08825-0.2549-0.16582-0.0776-0.07756-0.1256-0.15142-0.16582-0.25491-0.0304-0.07808-0.0665-0.1955-0.0764-0.4116-0.0106-0.23378-0.0129-0.30388-0.0129-0.8958 0-0.59191 2e-3 -0.66202 0.0129-0.8958 0.01-0.21615 0.046-0.33351 0.0764-0.4116 0.0402-0.10349 0.0883-0.17734 0.16582-0.25491 0.0776-0.07756 0.15142-0.12565 0.2549-0.16582 0.0781-0.03036 0.1955-0.06645 0.4116-0.07636 0.23378-0.01064 0.30388-0.01288 0.8958-0.01288"/>
<path d="m116.46 32.766c-0.4081 0-0.73896-0.33085-0.73896-0.73895 0-0.4081 0.33086-0.73895 0.73896-0.73895s0.73895 0.33085 0.73895 0.73895c0 0.4081-0.33085 0.73895-0.73895 0.73895zm0-1.8773c-0.62869 0-1.1384 0.50966-1.1384 1.1383 0 0.62869 0.50966 1.1383 1.1384 1.1383 0.62873 0 1.1383-0.50966 1.1383-1.1383 0-0.62868-0.50961-1.1383-1.1383-1.1383"/>
<path d="m117.91 30.844c0 0.14694-0.11909 0.26602-0.26597 0.26602-0.14693 0-0.26601-0.11908-0.26601-0.26602 0-0.14688 0.11908-0.26602 0.26601-0.26602 0.14688 0 0.26597 0.11913 0.26597 0.26602"/>
</g>
</g>
</svg>
