<!-- https://yarduon.com -->
<svg width="55" height="52" version="1.1" viewBox="0 0 14.552 13.758" xmlns="http://www.w3.org/2000/svg">
<rect x=".46406" y=".44579" width="13.624" height="12.867" ry="1.7714" fill="#29abe0" stroke="#292929" stroke-width=".65231"/>
<g transform="matrix(.21865 0 0 .21865 -.030644 -.30679)">
<path d="m43.75 17.297h3.1599c6.0949 0 11.036 4.9409 11.036 11.036v0.64868c0 6.0949-4.9409 11.036-11.036 11.036h-3.1599v3.3215c0 2.813-2.2804 5.0934-5.0934 5.0934h-24.05c-2.813 0-5.0934-2.2804-5.0934-5.0934v-23.495c0-1.4065 1.1402-2.5467 2.5467-2.5467zm0 5.8904v10.939h2.8807c3.0208 0 5.4697-2.4489 5.4697-5.4697 0-3.0208-2.4489-5.4697-5.4697-5.4697z" fill="#fff"/>
<g transform="matrix(1.9656 0 0 1.9656 9.5135 17.297)" fill="#ff5e5b">
<path d="m8.36 5.2768c0.40029-1.1712 1.3489-1.7568 2.8459-1.7568 2.2455 0 3.078 2.7937 1.9009 4.62-0.78469 1.2176-2.367 2.7576-4.7469 4.62-2.3799-1.8624-3.9622-3.4024-4.7469-4.62-1.177-1.8263-0.34457-4.62 1.9009-4.62 1.497 0 2.4456 0.58562 2.8459 1.7568z"/>
</g>
</g>
</svg>

