<!-- https://yarduon.com -->
<svg width="55" height="52" version="1.1" viewBox="0 0 14.552 13.758" xmlns="http://www.w3.org/2000/svg">
<path d="m2.2355 0.44578h10.081c0.98136 0 1.7714 0.79004 1.7714 1.7714v9.324c0 0.98136-0.79006 1.7714-1.7714 1.7714h-10.081c-0.98135 0-1.7714-0.79004-1.7714-1.7714v-9.324c0-0.98135 0.79004-1.7714 1.7714-1.7714z" fill="#4467ad" stroke="#292929" stroke-width=".65231"/>
<g transform="matrix(1.7759 0 0 1.7759 -185.26 -66.559)">
<path d="m107.33 39.774c2e-4 0.2759-0.22366 0.50064-0.49888 0.50075-0.27174 1.04e-4 -0.49752-0.22485-0.49841-0.49643-9.3e-4 -0.27455 0.22475-0.50064 0.4994-0.50038 0.27278 2.6e-4 0.49757 0.22428 0.49789 0.49607m-0.0689 2.2704c0 0.43935-7.2e-4 0.87875 1e-3 1.3182 2.1e-4 0.04882-0.0119 0.06358-0.0625 0.06301-0.24959-0.0028-0.49929-0.0021-0.74893-3.64e-4 -0.04 3.12e-4 -0.052-0.0097-0.052-0.05105 1e-3 -0.88962 1e-3 -1.7792 2.6e-4 -2.6689-6e-5 -0.03681 9e-3 -0.04991 0.048-0.0497 0.25323 0.0017 0.50652 0.0021 0.75975-2.6e-4 0.0487-5.2e-4 0.0553 0.0184 0.0552 0.0601-1e-3 0.44299-7.8e-4 0.88598-7.8e-4 1.329m1.3683-1.015c0.0577-0.06472 0.10512-0.13049 0.16434-0.18627 0.18201-0.17151 0.39724-0.25807 0.64855-0.25594 0.13813 0.0011 0.2747 0.01112 0.40784 0.04965 0.3046 0.08807 0.48162 0.29774 0.56599 0.59526 0.0633 0.22313 0.075 0.45224 0.0754 0.68203 8.3e-4 0.48479-1e-3 0.96952-3.7e-4 1.4543 1.1e-4 0.04539-0.0126 0.05729-0.0573 0.05688-0.2497-2e-3 -0.4995-0.0021-0.7492 1.04e-4 -0.0439 3.64e-4 -0.0534-0.01326-0.0533-0.05474 1e-3 -0.46129 2e-3 -0.92252 2.6e-4 -1.3838-4.2e-4 -0.11557-8e-3 -0.23109-0.0402-0.34348-0.0597-0.20702-0.2079-0.3125-0.42479-0.30106-0.29618 0.01565-0.45017 0.16231-0.48791 0.46342-9e-3 0.07195-0.0133 0.1439-0.0133 0.21637 4.2e-4 0.4486-4.6e-4 0.89716 1e-3 1.3458 1.6e-4 0.04476-0.011 0.05797-0.0567 0.05755-0.25152-0.0022-0.50309-2e-3 -0.75466-2.08e-4 -0.0403 3.12e-4 -0.052-0.01055-0.0519-0.05131 1e-3 -0.88816 1e-3 -1.7763-5e-5 -2.6645-6e-5 -0.04393 0.0144-0.05412 0.0559-0.05381 0.23889 0.0018 0.47782 2e-3 0.71666-1.56e-4 0.044-3.64e-4 0.0553 0.01383 0.0543 0.05547-2e-3 0.10611-7.8e-4 0.21232-7.8e-4 0.31848" fill="#fefefe"/>
</g>
</svg>