<?xml version="1.0" encoding="UTF-8" standalone="no"?>
<!-- Created with Inkscape (http://www.inkscape.org/) -->

<svg
   width="55"
   height="52"
   viewBox="0 0 14.552084 13.758334"
   version="1.1"
   id="svg9867"
   inkscape:export-filename="../../../../j-alarcon/img/icons/ubuntu.png"
   inkscape:export-xdpi="96"
   inkscape:export-ydpi="96"
   inkscape:version="1.2.2 (1:1.2.2+202212051550+b0a8486541)"
   sodipodi:docname="linkedin.svg"
   xmlns:inkscape="http://www.inkscape.org/namespaces/inkscape"
   xmlns:sodipodi="http://sodipodi.sourceforge.net/DTD/sodipodi-0.dtd"
   xmlns="http://www.w3.org/2000/svg"
   xmlns:svg="http://www.w3.org/2000/svg">
  <sodipodi:namedview
     id="namedview9869"
     pagecolor="#ffffff"
     bordercolor="#000000"
     borderopacity="0.25"
     inkscape:showpageshadow="2"
     inkscape:pageopacity="0.0"
     inkscape:pagecheckerboard="0"
     inkscape:deskcolor="#d1d1d1"
     inkscape:document-units="mm"
     showgrid="false"
     inkscape:zoom="8.1437113"
     inkscape:cx="11.665443"
     inkscape:cy="42.977948"
     inkscape:window-width="1920"
     inkscape:window-height="949"
     inkscape:window-x="1920"
     inkscape:window-y="27"
     inkscape:window-maximized="1"
     inkscape:current-layer="layer1"
     showguides="true">
    <sodipodi:guide
       position="0.1378982,6.5217155"
       orientation="1,0"
       id="guide31099"
       inkscape:locked="false" />
    <sodipodi:guide
       position="9.3961174,13.638705"
       orientation="0,-1"
       id="guide31101"
       inkscape:locked="false" />
    <sodipodi:guide
       position="14.414185,7.5325447"
       orientation="1,0"
       id="guide31103"
       inkscape:locked="false" />
    <sodipodi:guide
       position="10.475867,0.11963543"
       orientation="0,-1"
       id="guide31105"
       inkscape:locked="false" />
  </sodipodi:namedview>
  <defs
     id="defs9864" />
  <g
     inkscape:label="Capa 1"
     inkscape:groupmode="layer"
     id="layer1">
    <g
       id="g255600"
       transform="matrix(1.9021896,0,0,1.9021896,-185.75563,-20.261504)"
       inkscape:export-filename="../../assets/icons/linkedin.svg"
       inkscape:export-xdpi="96"
       inkscape:export-ydpi="96">
      <rect
         style="fill:#4467ad;fill-opacity:1;stroke:#292929;stroke-width:0.342925;stroke-opacity:1"
         id="rect120393-1"
         width="7.1622615"
         height="6.764184"
         x="97.897545"
         y="10.886027"
         ry="0.93124193" />
      <g
         id="g132721"
         transform="matrix(0.93361872,0,0,0.93361872,0.25841754,-24.338869)">
        <path
           d="m 108.63432,41.029627 c 0.0577,-0.06472 0.10512,-0.13049 0.16434,-0.186273 0.18201,-0.171508 0.39724,-0.258068 0.64855,-0.255936 0.13813,0.0011 0.2747,0.01112 0.40784,0.04965 0.3046,0.08807 0.48162,0.297735 0.56599,0.595262 0.0633,0.223132 0.075,0.452242 0.0754,0.682029 8.3e-4,0.484787 -0.001,0.969522 -3.7e-4,1.454309 1.1e-4,0.04539 -0.0126,0.05729 -0.0573,0.05688 -0.2497,-0.002 -0.4995,-0.0021 -0.7492,1.04e-4 -0.0439,3.64e-4 -0.0534,-0.01326 -0.0533,-0.05474 0.001,-0.461289 0.002,-0.922525 2.6e-4,-1.383814 -4.2e-4,-0.115569 -0.008,-0.231086 -0.0402,-0.343484 -0.0597,-0.207016 -0.2079,-0.312499 -0.42479,-0.301062 -0.29618,0.01565 -0.45017,0.162306 -0.48791,0.46342 -0.009,0.07195 -0.0133,0.143903 -0.0133,0.216374 4.2e-4,0.448603 -4.6e-4,0.897155 10e-4,1.345758 1.6e-4,0.04476 -0.011,0.05797 -0.0567,0.05755 -0.25152,-0.0022 -0.50309,-0.002 -0.75466,-2.08e-4 -0.0403,3.12e-4 -0.052,-0.01055 -0.0519,-0.05131 0.001,-0.888161 0.001,-1.776322 -5e-5,-2.664483 -6e-5,-0.04393 0.0144,-0.05412 0.0559,-0.05381 0.23889,0.0018 0.47782,0.002 0.71666,-1.56e-4 0.044,-3.64e-4 0.0553,0.01383 0.0543,0.05547 -0.002,0.106107 -7.8e-4,0.212319 -7.8e-4,0.318478"
           style="fill:#fefefe;fill-opacity:1;fill-rule:nonzero;stroke:none;stroke-width:0.00519879"
           id="path62069" />
        <path
           d="m 107.266,42.044639 c 0,0.439349 -7.2e-4,0.878751 10e-4,1.318152 2.1e-4,0.04882 -0.0119,0.06358 -0.0625,0.06301 -0.24959,-0.0028 -0.49929,-0.0021 -0.74893,-3.64e-4 -0.04,3.12e-4 -0.052,-0.0097 -0.052,-0.05105 0.001,-0.889617 0.001,-1.779234 2.6e-4,-2.668851 -6e-5,-0.03681 0.009,-0.04991 0.048,-0.0497 0.25323,0.0017 0.50652,0.0021 0.75975,-2.6e-4 0.0487,-5.2e-4 0.0553,0.0184 0.0552,0.0601 -10e-4,0.442989 -7.8e-4,0.885978 -7.8e-4,1.328967"
           style="fill:#fefefe;fill-opacity:1;fill-rule:nonzero;stroke:none;stroke-width:0.00519879"
           id="path62071" />
        <path
           d="m 107.33489,39.774223 c 2e-4,0.2759 -0.22366,0.500644 -0.49888,0.500748 -0.27174,1.04e-4 -0.49752,-0.224848 -0.49841,-0.496433 -9.3e-4,-0.274548 0.22475,-0.500643 0.4994,-0.500383 0.27278,2.6e-4 0.49757,0.224276 0.49789,0.496068"
           style="fill:#fefefe;fill-opacity:1;fill-rule:nonzero;stroke:none;stroke-width:0.00519879"
           id="path62073" />
      </g>
    </g>
  </g>
</svg>
