<svg width="55" height="52" viewBox="0 0 14.552 13.758" xmlns="http://www.w3.org/2000/svg">
<path d="m2.2355 0.44579h10.081c0.98136 0 1.7714 0.79004 1.7714 1.7714v9.324c0 0.98136-0.79004 1.7714-1.7714 1.7714h-10.081c-0.98135 0-1.7714-0.79004-1.7714-1.7714v-9.324c0-0.98135 0.79004-1.7714 1.7714-1.7714z" fill="#5a99ec" stroke="#292929" stroke-width=".65231"/>
<path d="m5.7647 10.191c3.0754 0 4.7573-2.5478 4.7573-4.757 0-0.072397-0.0014-0.14449-0.0057-0.21613 0.32647-0.236 0.61004-0.53048 0.83393-0.86563-0.29944 0.13302-0.62221 0.22275-0.95984 0.26314 0.34513-0.20689 0.61003-0.53449 0.73504-0.92487-0.3237 0.1915-0.68094 0.33086-1.0615 0.40586-0.30597-0.32499-0.7397-0.52825-1.221-0.52825-0.92346 0-1.6716 0.74876-1.6716 1.6718 0 0.13125 0.015217 0.25885 0.042799 0.38123-1.3899-0.069867-2.6212-0.73514-3.4457-1.7468-0.1436 0.247-0.22667 0.53412-0.22667 0.84026 0 0.58011 0.29476 1.0921 0.74438 1.3917-0.27426-0.0083697-0.53262-0.083868-0.75744-0.20913l-9.188e-4 0.021267c0 0.80976 0.57646 1.4858 1.3413 1.6391-0.13981 0.038253-0.28822 0.058778-0.44026 0.058778-0.10804 0-0.21268-0.010652-0.31436-0.030131 0.21266 0.66424 0.83019 1.1476 1.5615 1.1612-0.57182 0.4484-1.2929 0.71573-2.0764 0.71573-0.13429 0-0.26771-0.00761-0.39829-0.023226 0.73971 0.47423 1.6184 0.751 2.5624 0.751" fill="#fff"/>
</svg>
