<?xml version="1.0" encoding="UTF-8" standalone="no"?>
<!-- Created with Inkscape (http://www.inkscape.org/) -->

<svg
   width="55"
   height="52"
   viewBox="0 0 14.552084 13.758334"
   version="1.1"
   id="svg9867"
   inkscape:export-filename="../../../../j-alarcon/img/icons/ubuntu.png"
   inkscape:export-xdpi="96"
   inkscape:export-ydpi="96"
   inkscape:version="1.2.2 (1:1.2.2+202212051550+b0a8486541)"
   sodipodi:docname="twitter.svg"
   xmlns:inkscape="http://www.inkscape.org/namespaces/inkscape"
   xmlns:sodipodi="http://sodipodi.sourceforge.net/DTD/sodipodi-0.dtd"
   xmlns="http://www.w3.org/2000/svg"
   xmlns:svg="http://www.w3.org/2000/svg">
  <sodipodi:namedview
     id="namedview9869"
     pagecolor="#ffffff"
     bordercolor="#000000"
     borderopacity="0.25"
     inkscape:showpageshadow="2"
     inkscape:pageopacity="0.0"
     inkscape:pagecheckerboard="0"
     inkscape:deskcolor="#d1d1d1"
     inkscape:document-units="mm"
     showgrid="false"
     inkscape:zoom="8"
     inkscape:cx="11.25"
     inkscape:cy="30.875"
     inkscape:window-width="1920"
     inkscape:window-height="949"
     inkscape:window-x="1920"
     inkscape:window-y="27"
     inkscape:window-maximized="1"
     inkscape:current-layer="layer1"
     showguides="true">
    <sodipodi:guide
       position="0.1378982,6.5217155"
       orientation="1,0"
       id="guide31099"
       inkscape:locked="false" />
    <sodipodi:guide
       position="9.3961174,13.638705"
       orientation="0,-1"
       id="guide31101"
       inkscape:locked="false" />
    <sodipodi:guide
       position="14.414185,7.5325447"
       orientation="1,0"
       id="guide31103"
       inkscape:locked="false" />
    <sodipodi:guide
       position="10.475867,0.11963543"
       orientation="0,-1"
       id="guide31105"
       inkscape:locked="false" />
  </sodipodi:namedview>
  <defs
     id="defs9864" />
  <g
     inkscape:label="Capa 1"
     inkscape:groupmode="layer"
     id="layer1">
    <g
       id="g253351"
       transform="matrix(1.9021887,0,0,1.9021887,-186.28723,-65.999361)">
      <rect
         style="fill:#5a99ec;fill-opacity:1;stroke:#292929;stroke-width:0.342925;stroke-opacity:1"
         id="rect120393"
         width="7.1622624"
         height="6.764185"
         x="98.177055"
         y="34.930893"
         ry="0.93124205" />
      <path
         d="m 100.96364,40.05384 c 1.61678,0 2.50095,-1.339379 2.50095,-2.500799 0,-0.03806 -7.3e-4,-0.07596 -0.003,-0.113621 0.17163,-0.124067 0.32071,-0.27888 0.43841,-0.455073 -0.15742,0.06993 -0.3271,0.117102 -0.5046,0.138335 0.18144,-0.108766 0.3207,-0.280988 0.38642,-0.486213 -0.17017,0.100676 -0.35798,0.173939 -0.55806,0.213366 -0.16085,-0.170849 -0.38887,-0.277704 -0.64191,-0.277704 -0.48547,0 -0.87877,0.393629 -0.87877,0.878862 0,0.069 0.008,0.136081 0.0225,0.200418 -0.73066,-0.03673 -1.37797,-0.386468 -1.811463,-0.918287 -0.07549,0.129853 -0.119163,0.280792 -0.119163,0.441735 0,0.304968 0.15496,0.574139 0.391326,0.731649 -0.14418,-0.0044 -0.280006,-0.04409 -0.398196,-0.109943 l -4.83e-4,0.01118 c 0,0.4257 0.303049,0.781079 0.705159,0.861698 -0.0735,0.02011 -0.15152,0.0309 -0.23145,0.0309 -0.0568,0 -0.11181,-0.0056 -0.16526,-0.01584 0.1118,0.3492 0.43644,0.603316 0.8209,0.610476 -0.30061,0.235727 -0.67967,0.376269 -1.091598,0.376269 -0.0706,0 -0.140739,-0.004 -0.209385,-0.01221 0.388873,0.24931 0.850813,0.394806 1.347073,0.394806"
         style="fill:#ffffff;fill-opacity:1;fill-rule:nonzero;stroke:none;stroke-width:0.00490382"
         id="path62037" />
    </g>
  </g>
</svg>
